<?xml version="1.0" encoding="utf-8"?>
<svg viewBox="0 0 763.238 522.217" width="763.238" height="522.217" xmlns="http://www.w3.org/2000/svg">
  <defs>
    <style>.cls-1{fill:#ecf2fa;}.cls-2{fill:#8bbacc;}.cls-3,.cls-4{fill:#274b5b;}.cls-10,.cls-11,.cls-18,.cls-4{opacity:0.2;}.cls-10,.cls-11,.cls-19,.cls-21,.cls-22,.cls-4,.cls-5,.cls-6,.cls-9{isolation:isolate;}.cls-12,.cls-21,.cls-22,.cls-5{fill:#fff;}.cls-5{opacity:0.3;}.cls-15,.cls-6{opacity:0.4;}.cls-6{fill:url(#linear-gradient);}.cls-7{fill:url(#linear-gradient-2);}.cls-8{fill:#f6df9e;}.cls-9{fill:#1b5a6e;}.cls-21,.cls-9{opacity:0.8;}.cls-10{fill:#a7594e;}.cls-11{fill:#f08778;}.cls-13{fill:url(#linear-gradient-3);}.cls-14{fill:url(#linear-gradient-4);}.cls-16{fill:#426270;}.cls-17{opacity:0.9;}.cls-19{fill:#5c7869;opacity:0.6;}.cls-20{fill:#94e0f7;}.cls-22{opacity:0.15;}</style>
  </defs>
  <g id="Layer_2-2" data-name="Layer 2" transform="matrix(-1, 0, 0, -1, 752.835033, 538.960213)">
    <path class="cls-6" d="M 742.62 319.5 L 599.31 319.5 C 599.123 316.767 598.9 314.037 598.64 311.31 L 654.82 311.31 C 662.703 311.31 667.629 302.777 663.688 295.95 C 661.859 292.782 658.478 290.83 654.82 290.83 L 595.59 290.83 C 592.69 276.74 588.09 263.56 581.02 252.41 C 567.17 230.58 545.54 219.73 524.26 217.41 C 502.98 215.09 481.63 220.55 460.67 226.41 C 432.76 234.21 399.97 241.23 378.94 215.41 C 366.5 200.14 361.54 175.1 365.94 153.29 C 367.119 147.942 368.574 142.658 370.3 137.46 L 444.12 137.46 C 452.003 137.46 456.929 128.927 452.988 122.1 C 451.159 118.932 447.778 116.98 444.12 116.98 L 375.76 116.98 C 376.277 113.826 376.531 110.636 376.52 107.44 C 376.238 91.865 369.068 77.216 356.94 67.44 C 346.19 59.03 333.61 56.05 321.24 53.88 C 293.61 49.02 265.11 47.58 238.24 57.01 C 212.77 29.53 176.91 20.24 145.65 33.23 C 136.7 36.802 128.73 42.454 122.4 49.72 L 183.45 49.72 C 191.11 49.72 195.897 58.012 192.067 64.645 C 190.29 67.724 187.005 69.62 183.45 69.62 L 111.77 69.62 C 107.16 84.62 107.21 102.01 107.44 118.49 C 107.44 120.34 107.49 122.19 107.52 124.04 L 136.35 124.04 C 144.233 124.04 149.159 132.573 145.218 139.4 C 143.389 142.568 140.008 144.52 136.35 144.52 L 107.82 144.52 L 107.98 155.64 L 174.98 155.64 C 182.863 155.64 187.789 164.173 183.848 171 C 182.019 174.168 178.638 176.12 174.98 176.12 L 108.26 176.12 C 108.26 178.46 108.32 180.84 108.36 183.21 C 108.6 199.84 108.78 216.93 104.45 232.51 C 91.1 280.5 43.81 292.06 18.27 330 L 125.82 330 C 133.703 330 138.629 338.533 134.688 345.36 C 132.859 348.528 129.478 350.48 125.82 350.48 L 7.84 350.48 C 6.907 352.96 6.06 355.497 5.3 358.09 L 81.3 358.09 C 89.183 358.09 94.109 366.623 90.168 373.45 C 88.339 376.618 84.958 378.57 81.3 378.57 L 1 378.57 C -1.732 400.688 0.938 423.139 8.78 444 C 26.15 489.27 66.51 512.21 104.48 511.5 C 142.45 510.79 178.6 490.43 212.63 467.86 C 238.35 450.78 265.26 431.71 293.9 434.4 C 323.1 437.15 348.08 461.95 374.5 478.84 C 417.5 506.34 467.62 513.37 513.94 498.39 C 534.42 491.77 554.71 480.51 569.71 460.63 C 584.26 441.32 592.53 415.78 596.63 388.63 L 635.84 388.63 C 643.5 388.63 648.287 380.338 644.457 373.705 C 642.68 370.626 639.395 368.73 635.84 368.73 L 598.89 368.73 C 599.63 359.57 599.97 350.35 599.98 341.23 L 599.98 340 L 742.62 340 C 750.503 340 755.429 331.467 751.488 324.64 C 749.659 321.472 746.278 319.52 742.62 319.52 L 742.62 319.5 Z" style="fill: rgb(221, 237, 255);"/>
  </g>
</svg>